<?xml version="1.0" encoding="UTF-8" standalone="no"?>
<svg
   xmlns:dc="http://purl.org/dc/elements/1.1/"
   xmlns:cc="http://creativecommons.org/ns#"
   xmlns:rdf="http://www.w3.org/1999/02/22-rdf-syntax-ns#"
   xmlns:svg="http://www.w3.org/2000/svg"
   xmlns="http://www.w3.org/2000/svg"
   width="297mm"
   height="210mm"
   viewBox="0 0 1052.3622 744.09448"
   id="svg5125"
   version="1.1">
  <title
     id="title4151">b_note_high</title>
  <defs
     id="defs5127" />
  <metadata
     id="metadata5130">
    <rdf:RDF>
      <cc:Work
         rdf:about="">
        <dc:format>image/svg+xml</dc:format>
        <dc:type
           rdf:resource="http://purl.org/dc/dcmitype/StillImage" />
        <dc:title>b_note_high</dc:title>
        <dc:date>2015-12-18</dc:date>
        <dc:creator>
          <cc:Agent>
            <dc:title>Manveer Singh Basra</dc:title>
          </cc:Agent>
        </dc:creator>
        <dc:rights>
          <cc:Agent>
            <dc:title>CC-BY-SA</dc:title>
          </cc:Agent>
        </dc:rights>
        <cc:license
           rdf:resource="http://creativecommons.org/licenses/by-nc-sa/3.0/" />
      </cc:Work>
      <cc:License
         rdf:about="http://creativecommons.org/licenses/by-nc-sa/3.0/">
        <cc:permits
           rdf:resource="http://creativecommons.org/ns#Reproduction" />
        <cc:permits
           rdf:resource="http://creativecommons.org/ns#Distribution" />
        <cc:requires
           rdf:resource="http://creativecommons.org/ns#Notice" />
        <cc:requires
           rdf:resource="http://creativecommons.org/ns#Attribution" />
        <cc:prohibits
           rdf:resource="http://creativecommons.org/ns#CommercialUse" />
        <cc:permits
           rdf:resource="http://creativecommons.org/ns#DerivativeWorks" />
        <cc:requires
           rdf:resource="http://creativecommons.org/ns#ShareAlike" />
      </cc:License>
    </rdf:RDF>
  </metadata>
  <rect
     transform="matrix(0,1,-1,0,0,0)"
     y="-96.217041"
     x="31.179272"
     height="39.901024"
     width="55.558392"
     id="rect5685"
     style="opacity:1;fill:#ffffff;fill-opacity:1;stroke:#000000;stroke-width:2;stroke-miterlimit:4;stroke-dasharray:none;stroke-opacity:1" />
  <rect
     transform="matrix(0,1,-1,0,0,0)"
     y="-93.186584"
     x="86.906013"
     height="33.840111"
     width="73.236061"
     id="rect5689"
     style="opacity:1;fill:#ffffff;fill-opacity:1;stroke:#000000;stroke-width:2;stroke-miterlimit:4;stroke-dasharray:none;stroke-opacity:1" />
  <rect
     transform="matrix(0,1,-1,0,0,0)"
     y="-87.883301"
     x="160.31044"
     height="23.233509"
     width="282.33765"
     id="rect5691"
     style="opacity:1;fill:#ffffff;fill-opacity:1;stroke:#000000;stroke-width:2;stroke-miterlimit:4;stroke-dasharray:none;stroke-opacity:1" />
  <rect
     transform="matrix(0,1,-1,0,0,0)"
     y="-91.671326"
     x="442.81644"
     height="30.809652"
     width="36.870567"
     id="rect5695"
     style="opacity:1;fill:#ffffff;fill-opacity:1;stroke:#000000;stroke-width:2;stroke-miterlimit:4;stroke-dasharray:none;stroke-opacity:1" />
  <rect
     transform="matrix(0,1,-1,0,0,0)"
     y="-87.261414"
     x="86.763191"
     height="21.428572"
     width="8.0357141"
     id="rect5697"
     style="opacity:1;fill:#ffffff;fill-opacity:1;stroke:#000000;stroke-width:2;stroke-miterlimit:4;stroke-dasharray:none;stroke-opacity:1" />
  <ellipse
     transform="matrix(0,1,-1,0,0,0)"
     ry="5.8928571"
     rx="6.0714288"
     cy="-76.904297"
     cx="176.22746"
     id="path5703"
     style="opacity:1;fill:#000000;fill-opacity:1;stroke:#000000;stroke-width:2;stroke-miterlimit:4;stroke-dasharray:none;stroke-opacity:1" />
  <ellipse
     transform="matrix(0,1,-1,0,0,0)"
     ry="5.8928571"
     rx="6.0714288"
     cy="-76.476868"
     cx="315.96774"
     id="ellipse5707"
     style="opacity:1;fill:#000000;fill-opacity:1;stroke:#000000;stroke-width:2;stroke-miterlimit:4;stroke-dasharray:none;stroke-opacity:1" />
  <ellipse
     transform="matrix(0,1,-1,0,0,0)"
     style="opacity:1;fill:#ffffff;fill-opacity:1;stroke:#000000;stroke-width:2;stroke-miterlimit:4;stroke-dasharray:none;stroke-opacity:1"
     id="ellipse5709"
     cx="269.38766"
     cy="-76.476868"
     rx="6.0714288"
     ry="5.8928571" />
  <ellipse
     transform="matrix(0,1,-1,0,0,0)"
     ry="5.8928571"
     rx="6.0714288"
     cy="-76.476868"
     cx="222.80754"
     id="ellipse5711"
     style="opacity:1;fill:#000000;fill-opacity:1;stroke:#000000;stroke-width:2;stroke-miterlimit:4;stroke-dasharray:none;stroke-opacity:1" />
  <circle
     transform="matrix(0,1,-1,0,0,0)"
     style="opacity:1;fill:#ffffff;fill-opacity:1;stroke:#000000;stroke-width:2;stroke-miterlimit:4;stroke-dasharray:none;stroke-opacity:1"
     id="circle5715"
     cx="409.12787"
     cy="-72.421997"
     r="3.5714285" />
  <circle
     transform="matrix(0,1,-1,0,0,0)"
     r="3.5714285"
     cy="-80.531677"
     cx="409.12787"
     id="circle5717"
     style="opacity:1;fill:#ffffff;fill-opacity:1;stroke:#000000;stroke-width:2;stroke-miterlimit:4;stroke-dasharray:none;stroke-opacity:1" />
  <circle
     transform="matrix(0,1,-1,0,0,0)"
     style="opacity:1;fill:#ffffff;fill-opacity:1;stroke:#000000;stroke-width:2;stroke-miterlimit:4;stroke-dasharray:none;stroke-opacity:1"
     id="circle4173"
     cx="455.70795"
     cy="-72.421997"
     r="3.5714285" />
  <circle
     transform="matrix(0,1,-1,0,0,0)"
     r="3.5714285"
     cy="-80.531677"
     cx="455.70795"
     id="circle4175"
     style="opacity:1;fill:#ffffff;fill-opacity:1;stroke:#000000;stroke-width:2;stroke-miterlimit:4;stroke-dasharray:none;stroke-opacity:1" />
  <ellipse
     style="opacity:1;fill:#ffffff;fill-opacity:1;stroke:#000000;stroke-width:2;stroke-miterlimit:4;stroke-dasharray:none;stroke-opacity:1"
     id="ellipse4171"
     cx="176.22746"
     cy="-36.904297"
     rx="6.0714288"
     ry="5.8928571"
     transform="matrix(0,1,-1,0,0,0)" />
  <path
     id="path4173"
     d="m 31.005519,176.19623 12.138953,0 c 0.09693,1.56625 -0.441476,3.16268 -1.467169,4.35032 -1.025693,1.18765 -2.526743,1.9527 -4.090424,2.08479 -1.733905,0.14647 -3.519111,-0.49497 -4.76328,-1.71149 -1.244169,-1.21652 -1.925558,-2.98686 -1.81808,-4.72362 z"
     style="fill:#000000;fill-rule:evenodd;stroke:none;stroke-width:1px;stroke-linecap:butt;stroke-linejoin:miter;stroke-opacity:1;fill-opacity:1" />
  <circle
     transform="matrix(0,1,-1,0,0,0)"
     r="3.5714285"
     cy="-76.476868"
     cx="362.54782"
     id="path5713"
     style="opacity:1;fill:#000000;fill-opacity:1;stroke:#000000;stroke-width:2;stroke-miterlimit:4;stroke-dasharray:none;stroke-opacity:1" />
</svg>
